# xmcd
#
# Track frame offsets: 
#        150
#        22497
#        40082
#        56127
#        71535
#        86937
#        106785
#        122335
#        138510
#        149210
#        165060
#        177985
#        189810
#        202110
#        224460
#
# Disc length: 3239 seconds
#
# Revision: 1
# Processed by: cddbd v1.5.2PL0 Copyright (c) Steve Scherf et al.
# Submitted via: ExactAudioCopy v1.0b6
#
DISCID=e10ca50f
DTITLE=Freddie Scott - Brand New Man
DYEAR=2001
DGENRE=soul
TTITLE0=All I Wanna Do Is Sing
TTITLE1=Laugh To Keep From Crying
TTITLE2=Band New Man
TTITLE3=Your Love
TTITLE4=Everybody Loves Soul Music
TTITLE5=Second Hand Paradise
TTITLE6=Freddie Scott feat. Graham Parker - Midnight Train
TTITLE7=Other Side Of Town
TTITLE8=Just Enough To Keep Me Holding On
TTITLE9=Yes Man
TTITLE10=Look Into Your Soul
TTITLE11=Last Night
TTITLE12=Don't Reward The Sinner
TTITLE13=Protection
TTITLE14=Locked In A Mystery
EXTD=
EXTT0=
EXTT1=
EXTT2=
EXTT3=
EXTT4=
EXTT5=
EXTT6=
EXTT7=
EXTT8=
EXTT9=
EXTT10=
EXTT11=
EXTT12=
EXTT13=
EXTT14=
PLAYORDER=
